<?xml version="1.0" encoding="UTF-8" standalone="no"?>
<!-- Created with Inkscape (http://www.inkscape.org/) by Sir Teatei Moonlight for www.xenoserieswiki.org -->
<svg id="svg2" xmlns:rdf="http://www.w3.org/1999/02/22-rdf-syntax-ns#" xmlns="http://www.w3.org/2000/svg" version="1.1" xmlns:cc="http://creativecommons.org/ns#" xmlns:dc="http://purl.org/dc/elements/1.1/" xmlns:xlink="http://www.w3.org/1999/xlink" width="256" height="256" viewBox="0 0 256 256">
	<defs id="defs4">
		<path id="xShape" d="m 165.51953,6.9042969 c -1.58538,-0.016114 -3.22246,0.2385432 -4.91211,0.8144531 -3.30359,1.1260163 -2.97332,5.3826331 -3.92773,8.460938 -1.09998,3.547802 -14.4633,24.616689 -24.17188,33.839843 -4.26843,4.055007 -14.49132,13.987664 -26.15234,25.439453 l -1.884767,-2.271484 -18.365234,-37.201172 h -47.800781 l 40.679687,66.59961 c -7.34989,7.373062 -14.428298,14.556672 -20.503906,20.857422 -15.881306,16.4698 -39.047423,41.55417 -46.5312502,50.45898 13.0730132,-10.23105 28.0996092,-24.77734 28.0996092,-24.77734 -9.404852,10.41373 -20.230865,21.06527 -31.1210936,31.72656 9.3476786,-5.19337 18.3492566,-11.4248 27.1933596,-18.1289 -4.117183,7.10355 -7.321261,14.37634 -14.201172,20.84765 -3.496441,3.28879 -7.1563317,6.82132 -10.2734376,11.17969 -1.7740026,2.48043 -1.5941811,5.11202 -1.8125,7.55273 5.4282346,-4.29279 10.9390206,-8.09547 16.6191406,-10.87695 0,0 -4.753798,6.31722 -6.648437,9.06445 6.536507,-5.96811 20.140954,-15.05744 29.914062,-22.96289 16.66412,-13.47958 32.697577,-27.72086 48.947266,-41.69726 0.420463,-0.36164 1.137072,-0.98665 1.572265,-1.36133 l 2.882813,4.31836 20.708986,40 h 49.39844 l -41.54297,-71.57617 c 18.7765,-16.316815 35.87109,-31.205081 35.87109,-31.205081 11.08206,-9.623891 27.0547,-18.663657 27.49609,-31.123047 0.30606,-8.639469 -4.39375,-17.443797 -11.78515,-26.58789 -4.98149,-6.1627277 -10.87807,-11.3207971 -17.74805,-11.3906251 z"/>
		<path id="cShape" d="m 196.90775,180.75303 c -2.43584,10.96127 -9.22139,19.13872 -21.22659,19.13872 -17.57283,0 -20.00867,-16.00693 -20.00867,-26.27225 0,-17.57283 7.65549,-41.93121 28.88208,-41.93121 11.83121,0 17.39884,6.61156 17.05087,18.26878 h 36.18959 c -0.69595,-37.23352 -25.40231,-49.23873 -53.06647,-49.23873 -42.27919,0 -67.33353,33.40578 -67.33353,73.59711 0,33.2318 17.39884,56.54625 53.41445,56.54625 51.67457,0 61.41792,-37.40752 63.67977,-50.10867 z"/>
		<!--Inkscape doesn't respect href, so have to include xlink:href as well-->
		<clipPath id="xClip">
			<use href="#xShape" xlink:href="#xShape"/>
		</clipPath>
		<clipPath id="cClip">
			<use href="#cShape" xlink:href="#cShape"/>
		</clipPath>
		<!--Inkscape doesn't respect stop-color, so have to include style="" as well-->
		<linearGradient id="xGradient">
			<stop offset="0%" stop-color="rgba(223,223,223,1)" style="stop-color:rgb(223,223,223);stop-opacity:1;"/>
			<stop offset="75%" stop-color="rgba(251,251,251,1)" style="stop-color:rgb(251,251,251);stop-opacity:1;"/>
			<stop offset="100%" stop-color="rgba(239,239,239,1)" style="stop-color:rgb(239,239,239);stop-opacity:1;"/>
		</linearGradient>
		<linearGradient id="cGradient">
			<stop offset="0%" stop-color="rgba(191,191,191,1)" style="stop-color:rgb(191,191,191);stop-opacity:1;"/>
			<stop offset="75%" stop-color="rgba(239,239,239,1)" style="stop-color:rgb(239,239,239);stop-opacity:1;"/>
			<stop offset="100%" stop-color="rgba(223,223,223,1)" style="stop-color:rgb(223,223,223);stop-opacity:1;"/>
		</linearGradient>
		<filter id="shadow" filterUnits="userSpaceOnUse" x="-10%" y="-10%" width="120%" height="120%">
			<!--<feDropShadow dx="0" dy="0" stdDeviation="2" flood-color="rgba(0,0,0,0.5)" />-->
			<!--this doesn't work in ImageMagik (and thus Inkscape) so do it the hard way-->
			<feFlood flood-color="rgb(0,0,0)" flood-opacity="0.5" result="flood"/>
			<feComposite in="flood" in2="SourceGraphic" operator="in" result="composite1"/>
			<feGaussianBlur in="composite1" stdDeviation="2" result="blur"/>
			<feOffset dx="0" dy="0" result="offset"/>
			<feComposite in="SourceGraphic" in2="offset" operator="over" result="composite2"/>
		</filter>
	</defs>
	<metadata id="metadata7">
		<rdf:RDF>
			<cc:Work rdf:about="">
				<dc:format>image/svg+xml</dc:format>
				<dc:type rdf:resource="http://purl.org/dc/dcmitype/StillImage"/>
				<dc:title/>
			</cc:Work>
		</rdf:RDF>
	</metadata>
	<g id="symbolGroup">
		<use href="#cShape" xlink:href="#cShape" style="opacity:1;fill:url(#cGradient);stroke:none;filter:url(#shadow);"/>
		<!--order of operations is to transform *after* clip, so can't clone a line a bunch for this-->
		<path id="gritLinesC" clip-path="url(#cClip)" style="opacity:0.5;fill:none;stroke:rgb(255,255,255);stroke-width:1px;stroke-linecap:round;stroke-dasharray:1 5 2 4 3 5 1 4 3 2 5 1 4 2 5 3 4 1 5 2 3 4 5 1 2 4 3 5 1 2 4 3 5 2 1 4 3 1 5 2 3 5 2 1 4 3 5 1 2 4 3 5" d="m 0,0     0,2 256,0 0,2 -256,0 0,2 256,0 0,2 -256,0 0,2 256,0 0,2 -256,0 0,2 256,0 0,2 -256,0     0,2 256,0 0,2 -256,0 0,2 256,0 0,2 -256,0 0,2 256,0 0,2 -256,0 0,2 256,0 0,2 -256,0     0,2 256,0 0,2 -256,0 0,2 256,0 0,2 -256,0 0,2 256,0 0,2 -256,0 0,2 256,0 0,2 -256,0     0,2 256,0 0,2 -256,0 0,2 256,0 0,2 -256,0 0,2 256,0 0,2 -256,0 0,2 256,0 0,2 -256,0     0,2 256,0 0,2 -256,0 0,2 256,0 0,2 -256,0 0,2 256,0 0,2 -256,0 0,2 256,0 0,2 -256,0     0,2 256,0 0,2 -256,0 0,2 256,0 0,2 -256,0 0,2 256,0 0,2 -256,0 0,2 256,0 0,2 -256,0     0,2 256,0 0,2 -256,0 0,2 256,0 0,2 -256,0 0,2 256,0 0,2 -256,0 0,2 256,0 0,2 -256,0     0,2 256,0 0,2 -256,0 0,2 256,0 0,2 -256,0 0,2 256,0 0,2 -256,0 0,2 256,0 0,2 -256,0     0,2 256,0 0,2 -256,0 0,2 256,0 0,2 -256,0 0,2 256,0 0,2 -256,0 0,2 256,0 0,2 -256,0     0,2 256,0 0,2 -256,0 0,2 256,0 0,2 -256,0 0,2 256,0 0,2 -256,0 0,2 256,0 0,2 -256,0     0,2 256,0 0,2 -256,0 0,2 256,0 0,2 -256,0 0,2 256,0 0,2 -256,0 0,2 256,0 0,2 -256,0     0,2 256,0 0,2 -256,0 0,2 256,0 0,2 -256,0 0,2 256,0 0,2 -256,0 0,2 256,0 0,2 -256,0     0,2 256,0 0,2 -256,0 0,2 256,0 0,2 -256,0 0,2 256,0 0,2 -256,0 0,2 256,0 0,2 -256,0     0,2 256,0 0,2 -256,0 0,2 256,0 0,2 -256,0 0,2 256,0 0,2 -256,0 0,2 256,0 0,2 -256,0     0,2 256,0 0,2 -256,0 0,2 256,0 0,2 -256,0 0,2 256,0 0,2 -256,0 0,2 256,0 0,2 -256,0     0,2 256,0 0,2 -256,0 0,2 256,0 0,2 -256,0 0,2 256,0 0,2 -256,0 0,2 256,0 0,2 -256,0    "/>
		<use href="#xShape" xlink:href="#xShape" style="opacity:1;fill:url(#xGradient);stroke:none;filter:url(#shadow);"/>
		<!--the dasharray is the same pattern, but offset about halfway through so it doesn't look the same at the overlap-->
		<path id="gritLinesX" clip-path="url(#xClip)" style="opacity:0.5;fill:none;stroke:rgb(255,255,255);stroke-width:1px;stroke-linecap:round;stroke-dasharray:2 4 3 5 1 2 4 3 5 2 1 4 3 1 5 2 3 5 2 1 4 3 5 1 2 4 3 5 1 5 2 4 3 5 1 4 3 2 5 1 4 2 5 3 4 1 5 2 3 4 5 1" d="m 0,0     0,2 256,0 0,2 -256,0 0,2 256,0 0,2 -256,0 0,2 256,0 0,2 -256,0 0,2 256,0 0,2 -256,0     0,2 256,0 0,2 -256,0 0,2 256,0 0,2 -256,0 0,2 256,0 0,2 -256,0 0,2 256,0 0,2 -256,0     0,2 256,0 0,2 -256,0 0,2 256,0 0,2 -256,0 0,2 256,0 0,2 -256,0 0,2 256,0 0,2 -256,0     0,2 256,0 0,2 -256,0 0,2 256,0 0,2 -256,0 0,2 256,0 0,2 -256,0 0,2 256,0 0,2 -256,0     0,2 256,0 0,2 -256,0 0,2 256,0 0,2 -256,0 0,2 256,0 0,2 -256,0 0,2 256,0 0,2 -256,0     0,2 256,0 0,2 -256,0 0,2 256,0 0,2 -256,0 0,2 256,0 0,2 -256,0 0,2 256,0 0,2 -256,0     0,2 256,0 0,2 -256,0 0,2 256,0 0,2 -256,0 0,2 256,0 0,2 -256,0 0,2 256,0 0,2 -256,0     0,2 256,0 0,2 -256,0 0,2 256,0 0,2 -256,0 0,2 256,0 0,2 -256,0 0,2 256,0 0,2 -256,0     0,2 256,0 0,2 -256,0 0,2 256,0 0,2 -256,0 0,2 256,0 0,2 -256,0 0,2 256,0 0,2 -256,0     0,2 256,0 0,2 -256,0 0,2 256,0 0,2 -256,0 0,2 256,0 0,2 -256,0 0,2 256,0 0,2 -256,0     0,2 256,0 0,2 -256,0 0,2 256,0 0,2 -256,0 0,2 256,0 0,2 -256,0 0,2 256,0 0,2 -256,0     0,2 256,0 0,2 -256,0 0,2 256,0 0,2 -256,0 0,2 256,0 0,2 -256,0 0,2 256,0 0,2 -256,0     0,2 256,0 0,2 -256,0 0,2 256,0 0,2 -256,0 0,2 256,0 0,2 -256,0 0,2 256,0 0,2 -256,0     0,2 256,0 0,2 -256,0 0,2 256,0 0,2 -256,0 0,2 256,0 0,2 -256,0 0,2 256,0 0,2 -256,0     0,2 256,0 0,2 -256,0 0,2 256,0 0,2 -256,0 0,2 256,0 0,2 -256,0 0,2 256,0 0,2 -256,0     0,2 256,0 0,2 -256,0 0,2 256,0 0,2 -256,0 0,2 256,0 0,2 -256,0 0,2 256,0 0,2 -256,0    "/>
	</g>
</svg>