<?xml version="1.0" encoding="UTF-8" standalone="no"?>
<!-- Created with Inkscape (http://www.inkscape.org/) by Sir Teatei Moonlight for www.xenoserieswiki.org -->
<svg id="svg2" xmlns:rdf="http://www.w3.org/1999/02/22-rdf-syntax-ns#" xmlns="http://www.w3.org/2000/svg" version="1.1" xmlns:cc="http://creativecommons.org/ns#" xmlns:dc="http://purl.org/dc/elements/1.1/" xmlns:xlink="http://www.w3.org/1999/xlink" width="256" height="256" viewBox="0 0 256 256">
	<defs id="defs4">
		<path id="xShape" d="m 29.149628,75.4528 31.207031,53.73486 -51.75586,60.45117 h 42.604981 l 25.045894,-33.90087 16.082516,33.90087 h 43.71533 l -33.22119,-58.91894 46.53956,-55.26709 h -42.31495 l -21.559566,31.277343 -12.95068,-31.277343 z"/>
		<path id="cShape" d="m 162.07957,203.00851 c -1.82688,8.22096 -6.91605,14.35404 -15.91995,14.35404 -13.17962,0 -15.0065,-12.00519 -15.0065,-19.70418 0,-13.17963 5.74162,-31.44841 21.66156,-31.44841 8.87341,0 13.04913,4.95867 12.78815,13.70158 h 27.1422 c -0.52197,-27.92514 -19.05174,-36.92904 -39.79986,-36.92904 -31.70939,0 -50.50014,25.05433 -50.50014,55.19783 0,24.92385 13.04913,42.40969 40.06083,42.40969 38.75593,0 46.06344,-28.05564 47.75983,-37.58151 z"/>
		<path id="2Shape" d="m 98.087099,84.623079 c 5.538321,-38.461725 35.566351,-65.652556 73.955881,-65.257719 33.0327,0.339742 65.39318,13.62546 65.39318,47.711758 0,44.155872 -54.64788,71.628162 -89.24906,105.527182 h 71.56764 l -6.73578,38.1694 h -139.767383 l 5.003803,-28.35487 91.67824,-78.43616 c 10.09629,-8.637964 22.17016,-23.061504 22.17016,-32.275593 0,-12.952364 -8.93986,-18.099741 -21.74474,-18.099741 -15.94207,0 -25.12232,14.8302 -28.48939,31.015743 z"/>
		<path id="2CrossShape" d="m 312.05469,-15.820312 -95.07227,87.205078 c -0.49128,0.450628 -1.52727,0.628211 -1.99414,0.152343 l -57.89453,-59.009765 -1.30078,0.49414 53.86914,63.134766 c 0.45645,0.534965 0.47133,1.623554 -0.0371,2.109375 l -93.01172,88.873045 3.66211,4.79102 95.23242,-87.351565 c 0.48472,-0.444605 1.50811,-0.336691 1.96875,0.132813 l 57.75782,58.869142 1.30273,-0.49219 -53.8457,-63.109374 c -0.45933,-0.538357 -0.51166,-1.634157 0,-2.123047 l 93.02539,-88.884766 z"/>
		<!--Inkscape doesn't respect href, so have to include xlink:href as well-->
		<clipPath id="xClip">
			<use href="#xShape" xlink:href="#xShape"/>
		</clipPath>
		<clipPath id="cClip">
			<use href="#cShape" xlink:href="#cShape"/>
		</clipPath>
		<clipPath id="2Clip">
			<use href="#2Shape" xlink:href="#2Shape"/>
		</clipPath>
		<!--Inkscape doesn't respect stop-color, so have to include style="" as well-->
		<linearGradient id="xGradient">
			<stop offset="0%" stop-color="rgba(191,191,191,1)" style="stop-color:rgb(191,191,191);stop-opacity:1;"/>
			<stop offset="10%" stop-color="rgba(239,239,239,1)" style="stop-color:rgb(239,239,239);stop-opacity:1;"/>
			<stop offset="30%" stop-color="rgba(191,191,191,1)" style="stop-color:rgb(191,191,191);stop-opacity:1;"/>
			<stop offset="50%" stop-color="rgba(239,239,239,1)" style="stop-color:rgb(239,239,239);stop-opacity:1;"/>
			<stop offset="75%" stop-color="rgba(223,223,223,1)" style="stop-color:rgb(223,223,223);stop-opacity:1;"/>
			<stop offset="100%" stop-color="rgba(255,255,255,1)" style="stop-color:rgb(255,255,255);stop-opacity:1;"/>
		</linearGradient>
		<linearGradient id="cGradient">
			<stop offset="0%" stop-color="rgba(191,191,191,1)" style="stop-color:rgb(191,191,191);stop-opacity:1;"/>
			<stop offset="25%" stop-color="rgba(239,239,239,1)" style="stop-color:rgb(239,239,239);stop-opacity:1;"/>
			<stop offset="60%" stop-color="rgba(255,255,255,1)" style="stop-color:rgb(255,255,255);stop-opacity:1;"/>
			<stop offset="100%" stop-color="rgba(191,191,191,1)" style="stop-color:rgb(191,191,191);stop-opacity:1;"/>
		</linearGradient>
		<linearGradient id="2Gradient" x1="0%" x2="0%" y1="0%" y2="100%">
			<stop offset="0%" stop-color="rgba(255,0,0,1)" style="stop-color:rgb(255,0,0);stop-opacity:1;"/>
			<stop offset="35%" stop-color="rgba(255,0,0,1)" style="stop-color:rgb(255,0,0);stop-opacity:1;"/>
			<stop offset="75%" stop-color="rgba(239,0,0,1)" style="stop-color:rgb(239,0,0);stop-opacity:1;"/>
			<stop offset="100%" stop-color="rgba(191,0,0,1)" style="stop-color:rgb(191,0,0);stop-opacity:1;"/>
		</linearGradient>
		<linearGradient id="2CrossFill" x1="0%" x2="0%" y1="0%" y2="100%">
			<stop offset="70%" stop-color="rgba(207,0,0,1)" style="stop-color:rgb(207,0,0);stop-opacity:1;"/>
			<stop offset="100%" stop-color="rgba(207,0,0,0)" style="stop-color:rgb(207,0,0);stop-opacity:0;"/>
		</linearGradient>
		<filter id="shadow" filterUnits="userSpaceOnUse" x="-10%" y="-10%" width="120%" height="120%">
			<!--<feDropShadow dx="0" dy="0" stdDeviation="5" flood-color="rgba(0,0,0,0.5)" />-->
			<!--this doesn't work in ImageMagik (and thus Inkscape) so do it the hard way-->
			<feFlood flood-color="rgb(0,0,0)" flood-opacity="0.5" result="flood"/>
			<feComposite in="flood" in2="SourceGraphic" operator="in" result="composite1"/>
			<feGaussianBlur in="composite1" stdDeviation="5" result="blur"/>
			<feOffset dx="0" dy="0" result="offset"/>
			<feComposite in="SourceGraphic" in2="offset" operator="over" result="composite2"/>
		</filter>
		<filter id="fillTurbulence" filterUnits="userSpaceOnUse" x="0" y="0" width="100%" height="100%">
			<feTurbulence type="fractalNoise" baseFrequency="0.05 0.025" numOctaves="2" result="turb"/>
			<feDisplacementMap in="SourceGraphic" in2="turb" scale="50"/>
		</filter>
		<filter id="fireTurbulence" filterUnits="userSpaceOnUse" x="0" y="0" width="100%" height="100%">
			<feTurbulence type="turbulence" baseFrequency="0.05 0.025" numOctaves="3" result="turb"/>
			<feDisplacementMap in="SourceGraphic" in2="turb" scale="10" result="displaced"/>
			<feTurbulence type="fractalNoise" baseFrequency="0.1 0.05" numOctaves="1" seed="10" result="alp"/>
			<feComposite in="displaced" in2="alp" operator="in" result="nearly"/>
			<feComponentTransfer in="nearly" result="chopped">
				<feFuncA type="discrete" tableValues="0 1 0.5 1 0.5 1 0.5 1"/>
			</feComponentTransfer>
			<feGaussianBlur in="chopped" stdDeviation="0.5"/>
		</filter>
	</defs>
	<metadata id="metadata7">
		<rdf:RDF>
			<cc:Work rdf:about="">
				<dc:format>image/svg+xml</dc:format>
				<dc:type rdf:resource="http://purl.org/dc/dcmitype/StillImage"/>
				<dc:title/>
			</cc:Work>
		</rdf:RDF>
	</metadata>
	<g id="symbolGroup">
		<use href="#2Shape" xlink:href="#2Shape" style="opacity:1;fill:url(#2Gradient);stroke:none;filter:url(#shadow);"/>
		<use href="#2CrossShape" xlink:href="#2CrossShape" clip-path="url(#2Clip)" style="opacity:1;fill:url(#2CrossFill);stroke:none;"/>
		<!--order of operations is to transform *after* clip, so need to mess with groups-->
		<use href="#cShape" xlink:href="#cShape" style="opacity:1;fill:rgb(223,223,223);stroke:none;filter:url(#shadow);"/>
		<g id="c" clip-path="url(#cClip)">
			<path d="m 90,130 120,0 0,120 -120,0 0,-120 z" transform="skewX(-10) translate(30,0)" style="opacity:1;fill:url(#cGradient);stroke:none;filter:url(#fillTurbulence);"/>
		</g>
		<g id="xGroup" style="filter:url(#shadow)">
			<use href="#xShape" xlink:href="#xShape" style="opacity:1;fill:rgb(223,223,223);stroke:none;"/>
			<g id="x" clip-path="url(#xClip)">
				<path d="m 0,60 150,0 0,150 -150,0 0,-150 z" transform="skewX(-10) translate(30,0)" style="opacity:1;fill:url(#xGradient);stroke:none;filter:url(#fillTurbulence);"/>
			</g>
			<!--the weird grouping and rotations is so the fire effect can be angled-->
			<g id="flameGroup" style="filter:url(#fireTurbulence);" transform="rotate(40 128 128)">
				<path id="flame1" style="opacity:1;fill:rgb(255,255,255);stroke:none;" transform="rotate(-40 128 128)" d="m 2.8394437,190.06321 37.5929207,-43.1871 -23.94311,40.50189"/>
				<path id="flame2" style="opacity:1;fill:rgb(255,255,255);stroke:none;" transform="rotate(-40 128 128)" d="m 2.6156764,185.14033 14.5448804,-16.11125 18.348925,-8.2794 19.020228,-21.70543 -12.978509,25.06194 -17.90139,21.25791"/>
				<path id="flame3" style="opacity:1;fill:rgb(255,255,255);stroke:none;" transform="rotate(-40 128 128)" d="m 40.571429,186.25917 10.740834,-8.9507 15.887484,-15.21618 -9.174463,12.53097 16.558787,-4.25158 -16.111252,10.06953 -10.069532,7.60809"/>
				<path id="flame4" style="opacity:1;fill:rgb(255,255,255);stroke:none;" transform="rotate(-40 128 128)" d="m 91.81416,85.633375 13.42604,-23.495575 17.45386,-8.950695 -10.06953,14.768647 24.61441,-14.992414 1.3426,4.25158 8.50316,-14.097345 h 11.63591 l 9.39823,-10.964602 v 16.782554 l -16.55879,8.950695 18.12516,-2.908976 -26.40455,23.495575 h 17.23009 l -19.46777,12.754741 -29.98483,15.216182 22.89172,-17.963757 2.88472,-6.907983 14.98154,-16.737172 -7.44174,-3.870319 -16.40066,2.246063 -14.54067,8.333445 -7.56992,0.533409 z"/>
				<path id="flame5" style="opacity:0.75;fill:rgb(255,255,255);stroke:none;" transform="rotate(-40 128 128)" d="m 101.81416,75.633375 17.23009,-10.740834 11.75771,3.251676 10.12082,-5.954322 -2.84277,13.676257 -17.02186,20.57759 -0.38009,-6.104085 0.19951,-13.17347 -12.59926,0.65041 z"/>
			</g>
		</g>
	</g>
</svg>