<?xml version="1.0" encoding="UTF-8" standalone="no"?>
<!-- Created with Inkscape (http://www.inkscape.org/) by Sir Teatei Moonlight for www.xenoserieswiki.org -->
<svg id="svg2" xmlns:rdf="http://www.w3.org/1999/02/22-rdf-syntax-ns#" xmlns="http://www.w3.org/2000/svg" version="1.1" xmlns:cc="http://creativecommons.org/ns#" xmlns:dc="http://purl.org/dc/elements/1.1/" xmlns:xlink="http://www.w3.org/1999/xlink" width="256" height="256" viewBox="0 0 256 256">
	<defs id="defs4">
		<path id="xShape" d="m 165.51953,6.9042969 c -1.58538,-0.016114 -3.22246,0.2385432 -4.91211,0.8144531 -3.30359,1.1260163 -2.97332,5.3826331 -3.92773,8.460938 -1.09998,3.547802 -14.4633,24.616689 -24.17188,33.839843 -4.26843,4.055007 -14.49132,13.987664 -26.15234,25.439453 l -1.884767,-2.271484 -18.365234,-37.201172 h -47.800781 l 40.679687,66.59961 c -7.34989,7.373062 -14.428298,14.556672 -20.503906,20.857422 -15.881306,16.4698 -39.047423,41.55417 -46.5312502,50.45898 13.0730132,-10.23105 28.0996092,-24.77734 28.0996092,-24.77734 -9.404852,10.41373 -20.230865,21.06527 -31.1210936,31.72656 9.3476786,-5.19337 18.3492566,-11.4248 27.1933596,-18.1289 -4.117183,7.10355 -7.321261,14.37634 -14.201172,20.84765 -3.496441,3.28879 -7.1563317,6.82132 -10.2734376,11.17969 -1.7740026,2.48043 -1.5941811,5.11202 -1.8125,7.55273 5.4282346,-4.29279 10.9390206,-8.09547 16.6191406,-10.87695 0,0 -4.753798,6.31722 -6.648437,9.06445 6.536507,-5.96811 20.140954,-15.05744 29.914062,-22.96289 16.66412,-13.47958 32.697577,-27.72086 48.947266,-41.69726 0.420463,-0.36164 1.137072,-0.98665 1.572265,-1.36133 l 2.882813,4.31836 20.708986,40 h 49.39844 l -41.54297,-71.57617 c 18.7765,-16.316815 35.87109,-31.205081 35.87109,-31.205081 11.08206,-9.623891 27.0547,-18.663657 27.49609,-31.123047 0.30606,-8.639469 -4.39375,-17.443797 -11.78515,-26.58789 -4.98149,-6.1627277 -10.87807,-11.3207971 -17.74805,-11.3906251 z"/>
		<path id="cShape" d="m 196.90775,180.75303 c -2.43584,10.96127 -9.22139,19.13872 -21.22659,19.13872 -17.57283,0 -20.00867,-16.00693 -20.00867,-26.27225 0,-17.57283 7.65549,-41.93121 28.88208,-41.93121 11.83121,0 17.39884,6.61156 17.05087,18.26878 h 36.18959 c -0.69595,-37.23352 -25.40231,-49.23873 -53.06647,-49.23873 -42.27919,0 -67.33353,33.40578 -67.33353,73.59711 0,33.2318 17.39884,56.54625 53.41445,56.54625 51.67457,0 61.41792,-37.40752 63.67977,-50.10867 z"/>
		<!--Inkscape doesn't respect href, so have to include xlink:href as well-->
		<clipPath id="xClip">
			<use href="#xShape" xlink:href="#xShape"/>
		</clipPath>
		<clipPath id="cClip">
			<use href="#cShape" xlink:href="#cShape"/>
		</clipPath>
		<!--Inkscape doesn't respect stop-color, so have to include style="" as well-->
		<linearGradient id="xGradient">
			<stop offset="0%" stop-color="rgba(223,223,223,1)" style="stop-color:rgb(223,223,223);stop-opacity:1;"/>
			<stop offset="75%" stop-color="rgba(251,251,251,1)" style="stop-color:rgb(251,251,251);stop-opacity:1;"/>
			<stop offset="100%" stop-color="rgba(239,239,239,1)" style="stop-color:rgb(239,239,239);stop-opacity:1;"/>
		</linearGradient>
		<linearGradient id="cGradient">
			<stop offset="0%" stop-color="rgba(191,191,191,1)" style="stop-color:rgb(191,191,191);stop-opacity:1;"/>
			<stop offset="75%" stop-color="rgba(239,239,239,1)" style="stop-color:rgb(239,239,239);stop-opacity:1;"/>
			<stop offset="100%" stop-color="rgba(223,223,223,1)" style="stop-color:rgb(223,223,223);stop-opacity:1;"/>
		</linearGradient>
		<linearGradient id="deGradient" gradientUnits="userSpaceOnUse">
			<stop offset="0%" stop-color="rgba(239,15,63,1)" style="stop-color:rgb(239,15,63);stop-opacity:1;"/>
			<stop offset="75%" stop-color="rgba(239,31,79,1)" style="stop-color:rgb(239,31,79);stop-opacity:1;"/>
			<stop offset="100%" stop-color="rgba(239,15,63,1)" style="stop-color:rgb(239,15,63);stop-opacity:1;"/>
		</linearGradient>
		<filter id="shadow" filterUnits="userSpaceOnUse" x="-10%" y="-10%" width="120%" height="120%">
			<!--<feDropShadow dx="0" dy="0" stdDeviation="2" flood-color="rgba(0,0,0,0.5)" />-->
			<!--this doesn't work in ImageMagik (and thus Inkscape) so do it the hard way-->
			<feFlood flood-color="rgb(0,0,0)" flood-opacity="0.5" result="flood"/>
			<feComposite in="flood" in2="SourceGraphic" operator="in" result="composite1"/>
			<feGaussianBlur in="composite1" stdDeviation="2" result="blur"/>
			<feOffset dx="0" dy="0" result="offset"/>
			<feComposite in="SourceGraphic" in2="offset" operator="over" result="composite2"/>
		</filter>
	</defs>
	<metadata id="metadata7">
		<rdf:RDF>
			<cc:Work rdf:about="">
				<dc:format>image/svg+xml</dc:format>
				<dc:type rdf:resource="http://purl.org/dc/dcmitype/StillImage"/>
				<dc:title/>
			</cc:Work>
		</rdf:RDF>
	</metadata>
	<g id="symbolGroup">
		<g id="transformC" transform="scale(0.8,0.8) translate(60,-50)">
			<use href="#cShape" xlink:href="#cShape" style="opacity:1;fill:url(#cGradient);stroke:none;filter:url(#shadow);"/>
			<!--order of operations is to transform *after* clip, so can't clone a line a bunch for this-->
			<path id="gritLinesC" clip-path="url(#cClip)" style="opacity:0.5;fill:none;stroke:rgb(255,255,255);stroke-width:1px;stroke-linecap:round;stroke-dasharray:1 5 2 4 3 5 1 4 3 2 5 1 4 2 5 3 4 1 5 2 3 4 5 1 2 4 3 5 1 2 4 3 5 2 1 4 3 1 5 2 3 5 2 1 4 3 5 1 2 4 3 5" d="m 0,0      0,2 256,0 0,2 -256,0 0,2 256,0 0,2 -256,0 0,2 256,0 0,2 -256,0 0,2 256,0 0,2 -256,0      0,2 256,0 0,2 -256,0 0,2 256,0 0,2 -256,0 0,2 256,0 0,2 -256,0 0,2 256,0 0,2 -256,0      0,2 256,0 0,2 -256,0 0,2 256,0 0,2 -256,0 0,2 256,0 0,2 -256,0 0,2 256,0 0,2 -256,0      0,2 256,0 0,2 -256,0 0,2 256,0 0,2 -256,0 0,2 256,0 0,2 -256,0 0,2 256,0 0,2 -256,0      0,2 256,0 0,2 -256,0 0,2 256,0 0,2 -256,0 0,2 256,0 0,2 -256,0 0,2 256,0 0,2 -256,0      0,2 256,0 0,2 -256,0 0,2 256,0 0,2 -256,0 0,2 256,0 0,2 -256,0 0,2 256,0 0,2 -256,0      0,2 256,0 0,2 -256,0 0,2 256,0 0,2 -256,0 0,2 256,0 0,2 -256,0 0,2 256,0 0,2 -256,0      0,2 256,0 0,2 -256,0 0,2 256,0 0,2 -256,0 0,2 256,0 0,2 -256,0 0,2 256,0 0,2 -256,0      0,2 256,0 0,2 -256,0 0,2 256,0 0,2 -256,0 0,2 256,0 0,2 -256,0 0,2 256,0 0,2 -256,0      0,2 256,0 0,2 -256,0 0,2 256,0 0,2 -256,0 0,2 256,0 0,2 -256,0 0,2 256,0 0,2 -256,0      0,2 256,0 0,2 -256,0 0,2 256,0 0,2 -256,0 0,2 256,0 0,2 -256,0 0,2 256,0 0,2 -256,0      0,2 256,0 0,2 -256,0 0,2 256,0 0,2 -256,0 0,2 256,0 0,2 -256,0 0,2 256,0 0,2 -256,0      0,2 256,0 0,2 -256,0 0,2 256,0 0,2 -256,0 0,2 256,0 0,2 -256,0 0,2 256,0 0,2 -256,0      0,2 256,0 0,2 -256,0 0,2 256,0 0,2 -256,0 0,2 256,0 0,2 -256,0 0,2 256,0 0,2 -256,0      0,2 256,0 0,2 -256,0 0,2 256,0 0,2 -256,0 0,2 256,0 0,2 -256,0 0,2 256,0 0,2 -256,0      0,2 256,0 0,2 -256,0 0,2 256,0 0,2 -256,0 0,2 256,0 0,2 -256,0 0,2 256,0 0,2 -256,0     "/>
		</g>
		<g id="transformX" transform="scale(0.75,0.75) translate(10,0)">
			<use href="#xShape" xlink:href="#xShape" style="opacity:1;fill:url(#xGradient);stroke:none;filter:url(#shadow);"/>
			<!--the dasharray is the same pattern, but offset about halfway through so it doesn't look the same at the overlap-->
			<path id="gritLinesX" clip-path="url(#xClip)" style="opacity:0.5;fill:none;stroke:rgb(255,255,255);stroke-width:1px;stroke-linecap:round;stroke-dasharray:2 4 3 5 1 2 4 3 5 2 1 4 3 1 5 2 3 5 2 1 4 3 5 1 2 4 3 5 1 5 2 4 3 5 1 4 3 2 5 1 4 2 5 3 4 1 5 2 3 4 5 1" d="m 0,0      0,2 256,0 0,2 -256,0 0,2 256,0 0,2 -256,0 0,2 256,0 0,2 -256,0 0,2 256,0 0,2 -256,0      0,2 256,0 0,2 -256,0 0,2 256,0 0,2 -256,0 0,2 256,0 0,2 -256,0 0,2 256,0 0,2 -256,0      0,2 256,0 0,2 -256,0 0,2 256,0 0,2 -256,0 0,2 256,0 0,2 -256,0 0,2 256,0 0,2 -256,0      0,2 256,0 0,2 -256,0 0,2 256,0 0,2 -256,0 0,2 256,0 0,2 -256,0 0,2 256,0 0,2 -256,0      0,2 256,0 0,2 -256,0 0,2 256,0 0,2 -256,0 0,2 256,0 0,2 -256,0 0,2 256,0 0,2 -256,0      0,2 256,0 0,2 -256,0 0,2 256,0 0,2 -256,0 0,2 256,0 0,2 -256,0 0,2 256,0 0,2 -256,0      0,2 256,0 0,2 -256,0 0,2 256,0 0,2 -256,0 0,2 256,0 0,2 -256,0 0,2 256,0 0,2 -256,0      0,2 256,0 0,2 -256,0 0,2 256,0 0,2 -256,0 0,2 256,0 0,2 -256,0 0,2 256,0 0,2 -256,0      0,2 256,0 0,2 -256,0 0,2 256,0 0,2 -256,0 0,2 256,0 0,2 -256,0 0,2 256,0 0,2 -256,0      0,2 256,0 0,2 -256,0 0,2 256,0 0,2 -256,0 0,2 256,0 0,2 -256,0 0,2 256,0 0,2 -256,0      0,2 256,0 0,2 -256,0 0,2 256,0 0,2 -256,0 0,2 256,0 0,2 -256,0 0,2 256,0 0,2 -256,0      0,2 256,0 0,2 -256,0 0,2 256,0 0,2 -256,0 0,2 256,0 0,2 -256,0 0,2 256,0 0,2 -256,0      0,2 256,0 0,2 -256,0 0,2 256,0 0,2 -256,0 0,2 256,0 0,2 -256,0 0,2 256,0 0,2 -256,0      0,2 256,0 0,2 -256,0 0,2 256,0 0,2 -256,0 0,2 256,0 0,2 -256,0 0,2 256,0 0,2 -256,0      0,2 256,0 0,2 -256,0 0,2 256,0 0,2 -256,0 0,2 256,0 0,2 -256,0 0,2 256,0 0,2 -256,0      0,2 256,0 0,2 -256,0 0,2 256,0 0,2 -256,0 0,2 256,0 0,2 -256,0 0,2 256,0 0,2 -256,0     "/>
		</g>
		<path id="D" style="opacity:1;fill:url(#deGradient);stroke:none;filter:url(#shadow);" d="m 35.189109,128.18945 -13.454774,111 c 18.717612,-0.0125 37.441224,0.0354 56.153279,-0.0354 11.875813,-0.25821 23.672706,-3.09675 33.270076,-9.46209 9.10727,-5.97721 15.83247,-15.09601 19.40431,-25.47245 0.73977,-2.1168 1.39162,-4.35235 1.91863,-6.61795 0.24253,-1.03793 0.51197,-2.32761 0.71498,-3.47865 1.39889,-7.97201 1.56275,-16.10129 0.58493,-24.34752 -0.0446,-0.32632 -0.15568,-1.09581 -0.22717,-1.5918 -1.33334,-8.46844 -4.56867,-16.99607 -10.34111,-23.82869 -6.29515,-7.53508 -15.28278,-12.57101 -24.554949,-14.74614 -4.619617,-1.10609 -18.625592,-1.41931 -13.974067,-1.41931 z m 52.34424,23.58008 c 4.796407,1.18417 9.436651,3.91992 12.448296,8.03268 3.739575,4.95276 5.163175,11.061 5.689515,16.90128 0.62019,7.40665 -0.42042,14.80671 -2.97577,21.51084 -2.51824,6.45913 -6.961186,12.22053 -13.197663,15.37555 -4.754185,2.47255 -10.31873,3.28187 -15.840481,3.09957 h -20.567187 c 2.691171,-21.99986 5.379947,-44.00021 8.071451,-66 3.73153,-0.003 7.464748,0.0138 11.194788,-0.006 5.041412,0.0505 10.145487,-0.24991 15.177045,1.08601 z"/>
		<path id="E" style="opacity:1;fill:url(#deGradient);stroke:none;filter:url(#shadow);" d="m 134.06832,239.18945 c 30.49675,0 60.99349,0 91.49023,0 0.90178,-7.5 1.80356,-15 2.70533,-22.5 -21.00911,0 -42.01823,0 -63.02734,0 0.96208,-7.6102 1.91921,-15.22143 2.87941,-22.83203 19.10222,0 38.20443,0 57.30664,0 0.80284,-6.77799 1.60567,-13.55599 2.40851,-20.33398 -19.06836,0 -38.13672,0 -57.20508,0 0.96227,-7.61094 1.9207,-15.22268 2.88119,-22.83399 20.54232,0 41.08464,0 61.62695,0 0.86077,-7.5 1.72153,-15 2.5823,-22.5 -30.06446,0 -60.12891,0 -90.19336,0 -4.48493,37 -8.96985,74 -13.45478,111 z"/>
	</g>
</svg>